# xmcd
#
# Track frame offsets: 
#        150
#        8294
#        20063
#        26530
#        29236
#        37190
#        50717
#        61123
#        70232
#        82889
#        96265
#        107442
#        115713
#        126500
#        132284
#        136948
#        148982
#        165356
#        175935
#
# Disc length: 2639 seconds
#
# Revision: 3
# Processed by: cddbd v1.5.2PL0 Copyright (c) Steve Scherf et al.
# Submitted via: ExactAudioCopy v0.99pb5
#
DISCID=060a4d13
DTITLE=Kostas Chatzis - O gios ths Anoi3hs-CD2
DYEAR=1994
DGENRE=Ballad
TTITLE0=Otan 3ekiniseis
TTITLE1=Simera h mera htan san tis alles
TTITLE2=Den 3anazitw boh8eia
TTITLE3=Oi ponoi einai panta ponoi
TTITLE4=H zwh einai swsti
TTITLE5=Ex8es synantisa enan filo
TTITLE6=Ta3idepsa-ta3idepsa
TTITLE7=Mipws sas to exw 3anapei
TTITLE8=Sto die8nes to magazi
TTITLE9=O Desmofylakas
TTITLE10=Oi elies oi fountomenes
TTITLE11=O Zaxarias
TTITLE12=O kyrios kaneis
TTITLE13=Kapws etsi grafetai h istoria
TTITLE14=Kali anatrofi
TTITLE15=Eimai enas moysikos
TTITLE16=O Anaptiras
TTITLE17=Emeis oi tapeinoi
TTITLE18=H Klwtsia kai to xarti
EXTD=YEAR: 1994 ID3G: 48
EXTT0=
EXTT1=
EXTT2=
EXTT3=
EXTT4=
EXTT5=
EXTT6=
EXTT7=
EXTT8=
EXTT9=
EXTT10=
EXTT11=
EXTT12=
EXTT13=
EXTT14=
EXTT15=
EXTT16=
EXTT17=
EXTT18=
PLAYORDER=
